<?xml version="1.0" encoding="UTF-8"?>
<svg width="512px" height="512px" viewBox="0 0 512 512" version="1.1" xmlns="http://www.w3.org/2000/svg" xmlns:xlink="http://www.w3.org/1999/xlink">
    <!-- Generator: Sketch 52.6 (67491) - http://www.bohemiancoding.com/sketch -->
    <title>Logo@1x</title>
    <desc>Created with Sketch.</desc>
    <g id="Logo" stroke="none" stroke-width="1" fill="none" fill-rule="evenodd">
        <g id="Group-Copy-2" transform="translate(295.000000, 11.000000)">
            <path d="M197.022778,170.718 L107.928333,220.002 C106.123889,221.334 103.868333,222 101.5,222 C99.1316667,222 96.8761111,221.334 95.0716667,220.002 L5.97722222,170.718 C2.36833333,168.831 0,165.168 0,160.95 L0,61.05 C0,56.832 2.36833333,53.169 5.97722222,51.282 L95.0716667,1.998 C96.8761111,0.666 99.1316667,0 101.5,0 C103.868333,0 106.123889,0.666 107.928333,1.998 L197.022778,51.282 C200.631667,53.169 203,56.832 203,61.05 L203,160.95 C203,165.168 200.631667,168.831 197.022778,170.718 Z" id="Path-Copy-2" fill="#FF6583"></path>
            <path d="M179.862997,161.208393 L106.773543,202.143738 C105.29325,203.250098 103.442884,203.803279 101.5,203.803279 C99.5571158,203.803279 97.7067498,203.250098 96.2264571,202.143738 L23.1370027,161.208393 C20.1764172,159.641049 18.2335329,156.598557 18.2335329,153.095082 L18.2335329,70.1180328 C18.2335329,66.6145574 20.1764172,63.5720656 23.1370027,62.0047213 L96.2264571,21.069377 C97.7067498,19.9630164 99.5571158,19.4098361 101.5,19.4098361 C103.442884,19.4098361 105.29325,19.9630164 106.773543,21.069377 L179.862997,62.0047213 C182.823583,63.5720656 184.766467,66.6145574 184.766467,70.1180328 L184.766467,153.095082 C184.766467,156.598557 182.823583,159.641049 179.862997,161.208393 Z" id="Path-Copy-3" fill="#FFE5EA"></path>
            <path d="M18.2335329,70.3606557 C18.2335329,73.8577728 20.1764172,76.8947428 23.1370027,78.4592425 L96.2264571,119.320294 C97.7067498,120.424647 99.5571158,120.976823 101.5,120.976823 C103.442884,120.976823 105.29325,120.424647 106.773543,119.320294 L179.862997,78.4592425 C182.823583,76.8947428 184.766467,73.8577728 184.766467,70.3606557 L184.766467,153.187111 C184.766467,156.684228 182.823583,159.721198 179.862997,161.285698 L106.773543,202.14675 C105.29325,203.251102 103.442884,203.803279 101.5,203.803279 C99.5571158,203.803279 97.7067498,203.251102 96.2264571,202.14675 L23.1370027,161.285698 C20.1764172,159.721198 18.2335329,156.684228 18.2335329,153.187111 L18.2335329,70.3606557 Z" id="Combined-Shape-Copy" fill="#FF6583" fill-rule="nonzero"></path>
        </g>
        <g id="Group" transform="translate(155.000000, 111.000000)">
            <path d="M203,160.95 C203,165.168 200.631667,168.831 197.022778,170.718 L107.928333,220.002 C106.123889,221.334 103.868333,222 101.5,222 C99.1316667,222 96.8761111,221.334 95.0716667,220.002 L5.97722222,170.718 C2.36833333,168.831 0,165.168 0,160.95 L0,61.05 C0,56.832 2.36833333,53.169 5.97722222,51.282 L95.0716667,1.998 C96.8761111,0.666 99.1316667,0 101.5,0 C103.868333,0 106.123889,0.666 107.928333,1.998 L197.022778,51.282 C200.631667,53.169 203,56.832 203,61.05 L203,160.95 Z" id="Path-Copy-2" fill="#6c63ff"></path>
            <path d="M184.766467,153.095082 C184.766467,156.598557 182.823583,159.641049 179.862997,161.208393 L106.773543,202.143738 C105.29325,203.250098 103.442884,203.803279 101.5,203.803279 C99.5571158,203.803279 97.7067498,203.250098 96.2264571,202.143738 L23.1370027,161.208393 C20.1764172,159.641049 18.2335329,156.598557 18.2335329,153.095082 L18.2335329,70.1180328 C18.2335329,66.6145574 20.1764172,63.5720656 23.1370027,62.0047213 L96.2264571,21.069377 C97.7067498,19.9630164 99.5571158,19.4098361 101.5,19.4098361 C103.442884,19.4098361 105.29325,19.9630164 106.773543,21.069377 L179.862997,62.0047213 C182.823583,63.5720656 184.766467,66.6145574 184.766467,70.1180328 L184.766467,153.095082 Z" id="Path-Copy-3" fill="#DDDEFA"></path>
            <path d="M18.2335329,70.3606557 C18.2335329,73.8577728 20.1764172,76.8947428 23.1370027,78.4592425 L96.2264571,119.320294 C97.7067498,120.424647 99.5571158,120.976823 101.5,120.976823 C103.442884,120.976823 105.29325,120.424647 106.773543,119.320294 L179.862997,78.4592425 C182.823583,76.8947428 184.766467,73.8577728 184.766467,70.3606557 L184.766467,153.187111 C184.766467,156.684228 182.823583,159.721198 179.862997,161.285698 L106.773543,202.14675 C105.29325,203.251102 103.442884,203.803279 101.5,203.803279 C99.5571158,203.803279 97.7067498,203.251102 96.2264571,202.14675 L23.1370027,161.285698 C20.1764172,159.721198 18.2335329,156.684228 18.2335329,153.187111 L18.2335329,70.3606557 Z" id="Combined-Shape-Copy" fill="#6c63ff" fill-rule="nonzero"></path>
        </g>
        <g id="Group-Copy" transform="translate(15.000000, 211.000000)">
            <path d="M203,160.95 C203,165.168 200.631667,168.831 197.022778,170.718 L107.928333,220.002 C106.123889,221.334 103.868333,222 101.5,222 C99.1316667,222 96.8761111,221.334 95.0716667,220.002 L5.97722222,170.718 C2.36833333,168.831 0,165.168 0,160.95 L0,61.05 C0,56.832 2.36833333,53.169 5.97722222,51.282 L95.0716667,1.998 C96.8761111,0.666 99.1316667,0 101.5,0 C103.868333,0 106.123889,0.666 107.928333,1.998 L197.022778,51.282 C200.631667,53.169 203,56.832 203,61.05 L203,160.95 Z" id="Path-Copy-2" fill="#3d3f56"></path>
            <path d="M184.766467,153.095082 C184.766467,156.598557 182.823583,159.641049 179.862997,161.208393 L106.773543,202.143738 C105.29325,203.250098 103.442884,203.803279 101.5,203.803279 C99.5571158,203.803279 97.7067498,203.250098 96.2264571,202.143738 L23.1370027,161.208393 C20.1764172,159.641049 18.2335329,156.598557 18.2335329,153.095082 L18.2335329,70.1180328 C18.2335329,66.6145574 20.1764172,63.5720656 23.1370027,62.0047213 L96.2264571,21.069377 C97.7067498,19.9630164 99.5571158,19.4098361 101.5,19.4098361 C103.442884,19.4098361 105.29325,19.9630164 106.773543,21.069377 L179.862997,62.0047213 C182.823583,63.5720656 184.766467,66.6145574 184.766467,70.1180328 L184.766467,153.095082 Z" id="Path-Copy-3" fill="#DDDEFA"></path>
            <path d="M18.2335329,70.3606557 C18.2335329,73.8577728 20.1764172,76.8947428 23.1370027,78.4592425 L96.2264571,119.320294 C97.7067498,120.424647 99.5571158,120.976823 101.5,120.976823 C103.442884,120.976823 105.29325,120.424647 106.773543,119.320294 L179.862997,78.4592425 C182.823583,76.8947428 184.766467,73.8577728 184.766467,70.3606557 L184.766467,153.187111 C184.766467,156.684228 182.823583,159.721198 179.862997,161.285698 L106.773543,202.14675 C105.29325,203.251102 103.442884,203.803279 101.5,203.803279 C99.5571158,203.803279 97.7067498,203.251102 96.2264571,202.14675 L23.1370027,161.285698 C20.1764172,159.721198 18.2335329,156.684228 18.2335329,153.187111 L18.2335329,70.3606557 Z" id="Combined-Shape-Copy" fill="#3d3f56" fill-rule="nonzero"></path>
        </g>
    </g>
</svg>
